<?xml version="1.0" encoding="UTF-8"?>
<svg id="Layer_1" xmlns="http://www.w3.org/2000/svg" version="1.1" viewBox="0 0 841.9 595.3">
  <!-- Generator: Adobe Illustrator 29.0.1, SVG Export Plug-In . SVG Version: 2.1.0 Build 192)  -->
  <g id="O5sCpx">
    <path d="M98.1,12.8l169.3,120.8c5.5,9.1-10,30-22.5,28.7-11.9-1.3-65.3-39-80.7-47.5-5.3-3-4.6-9.1-13.1-2.3,117.7,250.2,389.9,400.2,661.9,390.5l9.4,17.9c-10,.1-21.3,8.1-29.2,9.2-122.9,18.2-279.3-27.5-389-88.4-123.1-68.3-224.5-165.7-279.7-297.7-12.5,3.4-3.8,6.5-3.6,12.7,1.3,36.3,2.2,76.7-11,110.4l-12.4-6-17-205.8c.4-7.5,10.3-43.7,17.5-42.3Z"/>
  </g>
</svg>