<?xml version="1.0" encoding="UTF-8"?>
<svg id="Layer_1" xmlns="http://www.w3.org/2000/svg" version="1.1" viewBox="0 0 841.9 595.3">
  <!-- Generator: Adobe Illustrator 29.0.1, SVG Export Plug-In . SVG Version: 2.1.0 Build 192)  -->
  <path d="M63.8,530.2c159.3-15.8,301.7-74.7,421.9-180.3,82.8-72.8,145.7-162,204.9-254.1,3-9.8-9.2-.3-12.2,1.3-28.4,15-70.6,43.8-98.8,53.3-9.4,3.1-39,4.6-34-9.9,33.1-18.5,61-44.4,92.6-65.1,20.6-13.5,115.6-81.2,134.2-53.6,5.6,8.3-14.5,176.8-18.5,198.6-1.4,8-4,38.6-14.1,20.8l-1.7,14.6-20.8-7.7c2.5-13.5-3.1-26.4-3.6-39.4-.6-16.2,10.4-40.7-4.4-49.8-79.8,123.5-182.9,242.6-314.8,312.9-73.7,39.3-199.9,84.3-284.2,79.2-16.5-1-41.5-1.6-46.7-20.9ZM610,275.4c21.9-17.4,41.9-45.4,53.1-71.1l-53.1,71.1Z"/>
</svg>